HIERARCHY
ROOT Hips
{
	OFFSET 0.000000 0.000000 0.000000
	CHANNELS 6 Xposition Yposition Zposition Zrotation Xrotation Yrotation
	JOINT LeftUpLeg
	{
		OFFSET 3.629690 0.000000 0.000000
		CHANNELS 3 Zrotation Xrotation Yrotation
		JOINT LeftLeg
		{
			OFFSET 0.000000 -17.030560 0.000000
			CHANNELS 3 Zrotation Xrotation Yrotation
			JOINT LeftFoot
			{
				OFFSET 0.000000 -15.712090 0.000000
				CHANNELS 3 Zrotation Xrotation Yrotation
				JOINT LeftToeBase
				{
					OFFSET 0.000000 -1.618809 6.041470
					CHANNELS 3 Zrotation Xrotation Yrotation
					End Site
					{
						OFFSET 0.000000 0.000000 2.952750
					}
				}
			}
		}
	}
	JOINT RightUpLeg
	{
		OFFSET -3.629690 0.000000 0.000000
		CHANNELS 3 Zrotation Xrotation Yrotation
		JOINT RightLeg
		{
			OFFSET 0.000000 -17.030560 0.000000
			CHANNELS 3 Zrotation Xrotation Yrotation
			JOINT RightFoot
			{
				OFFSET 0.000000 -15.712090 0.000000
				CHANNELS 3 Zrotation Xrotation Yrotation
				JOINT RightToeBase
				{
					OFFSET 0.000000 -1.618809 6.041470
					CHANNELS 3 Zrotation Xrotation Yrotation
					End Site
					{
						OFFSET 0.000000 0.000000 2.952750
					}
				}
			}
		}
	}
	JOINT Spine
	{
		OFFSET 0.000000 0.039370 0.000000
		CHANNELS 3 Zrotation Xrotation Yrotation
		JOINT Spine1
		{
			OFFSET 0.000000 7.224080 0.000000
			CHANNELS 3 Zrotation Xrotation Yrotation
			JOINT Neck
			{
				OFFSET 0.000000 10.285650 0.000000
				CHANNELS 3 Zrotation Xrotation Yrotation
				JOINT Head
				{
					OFFSET 0.000000 6.808250 0.000000
					CHANNELS 3 Zrotation Xrotation Yrotation
					End Site
					{
						OFFSET 0.000000 4.527550 0.000000
					}
				}
			}
			JOINT LeftShoulder
			{
				OFFSET 0.000000 10.285650 0.000000
				CHANNELS 3 Zrotation Xrotation Yrotation
				JOINT LeftArm
				{
					OFFSET 7.175730 -0.000031 0.000000
					CHANNELS 3 Zrotation Xrotation Yrotation
					JOINT LeftForeArm
					{
						OFFSET 9.778290 -0.000040 0.000000
						CHANNELS 3 Zrotation Xrotation Yrotation
						JOINT LeftHand
						{
							OFFSET 9.419470 -0.000031 0.000000
							CHANNELS 3 Zrotation Xrotation Yrotation
							JOINT LeftHandThumb
							{
								OFFSET 0.000000 0.000000 0.000000
								CHANNELS 3 Zrotation Xrotation Yrotation
								End Site
								{
									OFFSET 0.000000 0.000000 3.937000
								}
							}
							JOINT L_Wrist_End
							{
								OFFSET 3.937000 -0.000010 0.000000
								CHANNELS 3 Zrotation Xrotation Yrotation
								End Site
								{
									OFFSET 0.000000 0.100000 0.000000
								}
							}
						}
					}
				}
			}
			JOINT RightShoulder
			{
				OFFSET 0.000000 10.285650 0.000000
				CHANNELS 3 Zrotation Xrotation Yrotation
				JOINT RightArm
				{
					OFFSET -7.175730 -0.000031 0.000000
					CHANNELS 3 Zrotation Xrotation Yrotation
					JOINT RightForeArm
					{
						OFFSET -9.778290 -0.000040 0.000000
						CHANNELS 3 Zrotation Xrotation Yrotation
						JOINT RightHand
						{
							OFFSET -9.419470 -0.000031 0.000000
							CHANNELS 3 Zrotation Xrotation Yrotation
							JOINT RightHandThumb
							{
								OFFSET 0.000000 0.000000 0.000000
								CHANNELS 3 Zrotation Xrotation Yrotation
								End Site
								{
									OFFSET 0.000000 0.000000 3.937000
								}
							}
							JOINT R_Wrist_End
							{
								OFFSET -5.393690 -0.000019 0.000000
								CHANNELS 3 Zrotation Xrotation Yrotation
								End Site
								{
									OFFSET 0.000000 0.100000 0.000000
								}
							}
						}
					}
				}
			}
		}
	}
}
MOTION
Frames: 10
Frame Time: 0.038462
-1.552420 34.696682 40.158741 0.684125 -1.575545 683.703247 0.878461 -29.133503 -5.371898 0.000002 43.697430 -0.000002 -24.911054 8.111443 0.058202 0.000000 -13.961802 -0.000004 4.325870 6.095792 -6.545962 -0.000003 26.685556 -0.000001 -1.395869 -8.467632 5.821903 -0.000001 -19.026998 0.000000 -1.901317 -17.650559 2.308382 -1.741379 18.673160 -2.380737 2.862944 25.140743 18.325281 -14.522012 -24.509063 16.359239 18.392851 14.547521 -10.409463 -75.827217 25.526241 11.682360 -0.000074 -0.000135 -43.341891 40.434628 5.591151 -3.657376 -0.000000 0.000000 0.000000 -0.000001 0.000000 0.000001 -6.518568 7.410607 -3.814374 70.553764 -34.182228 -11.521503 0.000189 -0.000231 84.429983 -44.605705 2.498780 -12.695797 -0.000000 0.000003 0.000001 -0.000001 0.000003 0.000002 
-1.838588 34.766342 40.458557 0.804172 -1.099996 672.954223 4.981671 -27.510047 1.921346 -0.000001 41.639869 0.000001 -20.972349 5.466099 -2.233144 -0.000002 -14.777418 -0.000001 2.911317 6.758567 0.762128 0.000000 25.038189 -0.000000 -2.442100 -8.424599 7.808709 0.000001 -18.163473 -0.000001 0.090402 -19.451841 6.029601 -1.483686 20.041681 0.624927 0.493411 24.722642 22.391606 -14.477853 -23.542212 16.897779 17.110645 16.881446 -8.262984 -78.590868 28.269379 13.367043 -0.000078 -0.000140 -39.405762 39.228263 3.834393 -4.749723 0.000000 -0.000000 0.000000 0.000001 -0.000000 0.000000 -8.549960 3.262993 -0.168854 67.303796 -30.560063 -7.430016 0.000197 -0.000449 89.703408 -42.811540 6.076881 -11.661620 0.000001 -0.000002 -0.000002 0.000002 -0.000004 -0.000001 
-2.139624 34.900585 41.180355 0.379268 -2.277606 662.800027 4.056629 -21.398943 2.815597 0.000000 34.363976 0.000002 -16.738465 6.186685 4.369525 -0.000002 -14.888711 0.000002 -0.184516 6.586323 6.513629 0.000001 27.757235 0.000002 -2.737897 -7.184612 10.478145 -0.000002 -20.220572 -0.000004 4.162525 -21.076919 10.395721 -3.126118 22.912447 2.823017 -3.080089 24.464921 27.496211 -14.246242 -22.609422 17.276590 15.003766 19.699767 -4.422110 -82.968664 30.599715 13.771493 0.000001 -0.000102 -34.981603 39.294761 1.543638 -5.195866 -0.000001 -0.000000 0.000000 -0.000001 -0.000000 0.000000 -13.316588 1.693619 4.643542 70.110888 -24.369283 -3.108214 0.000226 -0.000244 93.471576 -42.233191 10.456193 -9.209953 -0.000001 -0.000000 0.000002 0.000000 -0.000001 0.000003 
-2.528811 34.938309 42.183655 -0.594630 -5.454985 655.205895 -1.317898 -13.438137 0.095063 -0.000000 28.651742 -0.000000 -10.396572 0.489906 16.893160 0.000000 -12.781789 0.000003 -4.881485 4.785566 8.333832 0.000002 36.062958 0.000000 -2.421039 -5.042600 12.779050 0.000001 -24.846171 -0.000000 8.038431 -19.702179 14.476195 -6.942480 23.083282 4.165500 -6.192065 25.950264 31.584075 -13.323139 -22.649537 17.769659 12.605205 22.691304 -0.825386 -87.031145 27.666916 14.877233 0.000001 -0.000101 -33.078784 39.362787 0.335531 -7.374799 0.000003 0.000000 -0.000000 0.000002 0.000000 -0.000000 -16.331628 1.312441 8.317846 73.172220 -14.720506 -0.969784 0.000226 -0.000157 94.622606 -42.560070 12.685738 -6.063538 -0.000001 -0.000001 0.000001 -0.000000 -0.000001 0.000001 
-2.896594 34.840637 43.173698 -1.048555 -10.839795 650.228326 -7.250989 -6.581541 0.569395 0.000000 23.227653 0.000000 -11.152616 -1.632922 20.193697 0.000001 -11.454818 -0.000001 -11.863955 0.263721 6.723660 -0.000000 49.125989 0.000001 1.428040 0.305874 14.048209 0.000001 -30.911476 -0.000001 9.129406 -17.005600 17.271274 -11.651855 21.618085 5.407921 -8.731005 28.276288 34.832889 -11.936626 -23.132722 17.693248 10.354183 23.815656 1.461230 -89.036557 18.929917 15.979291 -0.000000 -0.000100 -31.795077 40.442503 -2.222888 -7.844880 0.000004 -0.000002 0.000001 0.000004 -0.000001 0.000000 -16.166559 0.613968 9.606459 75.782492 -3.835285 -0.147024 0.000198 -0.000146 90.823525 -43.011491 17.915907 -1.947258 0.000002 -0.000001 0.000000 0.000001 -0.000000 -0.000002 
-3.170626 34.610008 43.855297 -0.965286 -16.195707 647.053490 -11.903865 -3.516758 4.923609 -0.000001 21.705679 -0.000002 -14.381143 -1.321290 16.027539 0.000002 -15.240152 0.000003 -18.554499 -5.559780 3.277895 0.000000 62.807011 0.000000 5.099022 2.024898 9.865740 0.000002 -20.864566 0.000002 9.211131 -15.833565 19.195570 -15.856081 21.966614 6.943585 -11.399255 30.057197 38.210868 -11.716253 -24.326946 16.350740 7.719449 22.261248 2.628306 -86.824490 5.559180 15.161946 0.000000 -0.000098 -29.680676 44.484766 -9.249254 -6.574830 0.000004 0.000000 -0.000000 0.000004 -0.000000 0.000000 -14.349942 1.033591 9.542944 78.726741 3.210626 1.833770 0.000184 -0.000228 82.707997 -43.313050 20.192660 0.440547 0.000001 0.000001 -0.000001 0.000001 0.000000 -0.000001 
-3.283321 34.352562 44.196785 -1.005453 -19.481665 648.210798 -14.401464 -3.176499 7.832198 -0.000000 24.218922 0.000000 -14.185039 -1.163088 11.462983 0.000002 -15.625543 0.000002 -21.863811 -9.535478 -0.174755 0.000004 72.513714 -0.000003 6.695432 1.822841 3.296660 0.000002 -11.011927 0.000000 10.255795 -16.653705 19.591925 -19.290344 25.700743 7.568954 -12.367570 29.418144 39.667809 -11.880021 -23.232354 15.107800 3.922853 17.087684 2.321940 -78.998890 -10.475170 14.713180 0.000001 -0.000100 -30.406360 50.970731 -18.032866 -0.179375 0.000001 0.000000 -0.000001 0.000003 0.000002 0.000002 -12.587725 2.523870 9.198568 80.963041 5.582135 3.754204 0.000150 -0.000226 72.074533 -41.572199 18.321726 -1.077700 0.000000 0.000002 0.000000 0.000000 0.000003 0.000000 
-3.371436 34.060024 44.256142 -0.878601 -20.442384 654.567518 -15.103949 -3.949864 4.262646 0.000001 28.555197 -0.000001 -12.967650 -2.257865 9.540493 0.000002 -15.809402 0.000005 -22.116723 -10.355830 -3.066289 0.000006 76.653546 -0.000005 4.619294 -1.549859 3.262449 0.000002 -11.166587 0.000002 11.123921 -17.597649 18.417320 -21.455858 28.764833 6.452086 -11.096791 28.350479 38.205063 -10.157751 -22.364888 14.896057 3.024739 14.054594 0.623760 -71.950360 -26.627431 10.519794 0.000001 -0.000101 -33.980874 57.235056 -24.504050 5.815154 -0.000003 0.000003 0.000002 -0.000003 0.000003 0.000002 -12.592413 4.017916 7.976167 83.705375 7.338996 2.960516 0.000106 -0.000137 57.813767 -39.417920 12.893132 -3.216918 -0.000000 0.000001 -0.000001 -0.000000 0.000004 -0.000001 
-3.459902 33.882847 43.913853 -0.156591 -20.858173 663.412176 -14.961676 -4.155720 -0.375741 0.000000 30.588828 -0.000001 -11.980066 -2.245072 6.501169 0.000002 -14.567120 -0.000001 -20.638306 -9.802524 -2.609995 -0.000006 75.575114 -0.000000 3.206312 -5.165247 5.100786 -0.000001 -10.636263 0.000001 9.452621 -18.441692 15.656831 -22.026773 30.831645 4.875184 -8.634250 27.914341 34.600837 -8.242146 -23.244034 15.130302 3.963123 11.474653 -2.883454 -68.026382 -39.194392 4.755583 -0.000075 -0.000138 -40.034532 61.319184 -26.925883 9.864656 0.000004 0.000000 -0.000001 0.000002 0.000002 0.000000 -11.328733 5.274876 6.048184 84.383415 8.774852 0.820524 0.000074 -0.000136 42.767837 -33.380077 8.021376 -7.668430 0.000001 -0.000003 0.000001 0.000000 -0.000002 0.000000 
-3.686219 33.901299 43.000999 0.286207 -19.898989 671.854454 -11.877235 -5.343121 -1.630403 0.000002 31.712896 0.000003 -11.037683 0.645672 0.158500 -0.000000 -15.045788 0.000001 -15.508011 -8.945459 3.488313 -0.000004 69.443770 0.000005 1.760292 -7.003831 5.595396 0.000002 -11.255059 0.000001 6.331641 -18.862069 12.240284 -20.892545 32.493594 3.562031 -5.568272 27.653175 30.235417 -7.545988 -25.059698 16.108144 5.434327 6.769690 -7.571892 -63.781147 -46.590428 0.250221 -0.000070 -0.000131 -45.159261 61.957117 -23.781539 8.020078 -0.000000 0.000001 0.000000 0.000001 0.000001 0.000000 -8.264767 6.021405 4.125512 84.503073 1.252683 -3.602007 -0.000001 -0.000098 33.138309 -32.075296 0.862152 -10.710467 0.000002 -0.000001 -0.000001 0.000000 -0.000002 0.000001 
